<svg xmlns="http://www.w3.org/2000/svg" viewBox="0 0 860 480" role="img">
  <rect width="100%" height="100%" fill="#ffffff"/>
  <g font-family="Arial, Segoe UI, sans-serif">

    <text x="248" y="52" text-anchor="end" font-size="13" fill="#26343b">Home Decor</text>
    <rect x="260" y="34" width="514.0" height="24" rx="5" fill="#e04b85"/>
    <text x="782.0" y="51" font-size="13" fill="#34444b">3.1M</text>

    <text x="248" y="91" text-anchor="end" font-size="13" fill="#26343b">Kitchen &amp; Dining</text>
    <rect x="260" y="73" width="357.6" height="24" rx="5" fill="#e04b85"/>
    <text x="625.6" y="90" font-size="13" fill="#34444b">2.1M</text>

    <text x="248" y="130" text-anchor="end" font-size="13" fill="#26343b">Gifts &amp; Occasions</text>
    <rect x="260" y="112" width="248.5" height="24" rx="5" fill="#e04b85"/>
    <text x="516.5" y="129" font-size="13" fill="#34444b">1.5M</text>

    <text x="248" y="169" text-anchor="end" font-size="13" fill="#26343b">Other / Mixed</text>
    <rect x="260" y="151" width="239.7" height="24" rx="5" fill="#e04b85"/>
    <text x="507.7" y="168" font-size="13" fill="#34444b">1.4M</text>

    <text x="248" y="208" text-anchor="end" font-size="13" fill="#26343b">Storage &amp; Bags</text>
    <rect x="260" y="190" width="229.1" height="24" rx="5" fill="#e04b85"/>
    <text x="497.1" y="207" font-size="13" fill="#34444b">1.4M</text>

    <text x="248" y="247" text-anchor="end" font-size="13" fill="#26343b">Stationery</text>
    <rect x="260" y="229" width="55.6" height="24" rx="5" fill="#e04b85"/>
    <text x="323.6" y="246" font-size="13" fill="#34444b">330K</text>

    <text x="248" y="286" text-anchor="end" font-size="13" fill="#26343b">Holiday &amp; Seasonal</text>
    <rect x="260" y="268" width="40.7" height="24" rx="5" fill="#e04b85"/>
    <text x="308.7" y="285" font-size="13" fill="#34444b">242K</text>

    <text x="248" y="325" text-anchor="end" font-size="13" fill="#26343b">Apparel &amp; Accessories</text>
    <rect x="260" y="307" width="21.1" height="24" rx="5" fill="#e04b85"/>
    <text x="289.1" y="324" font-size="13" fill="#34444b">125K</text>

    <text x="248" y="364" text-anchor="end" font-size="13" fill="#26343b">Kids &amp; Toys</text>
    <rect x="260" y="346" width="19.6" height="24" rx="5" fill="#e04b85"/>
    <text x="287.6" y="363" font-size="13" fill="#34444b">116K</text>

    <text x="248" y="403" text-anchor="end" font-size="13" fill="#26343b">Bath &amp; Beauty</text>
    <rect x="260" y="385" width="5.2" height="24" rx="5" fill="#e04b85"/>
    <text x="273.2" y="402" font-size="13" fill="#34444b">31K</text>

    <line x1="260" y1="428" x2="774" y2="428" stroke="#d9e4e8"/>
    <text x="260" y="456" font-size="12" fill="#5d6d73">Revenue</text>
  </g>
</svg>