<svg xmlns="http://www.w3.org/2000/svg" viewBox="0 0 860 480" role="img">
  <rect width="100%" height="100%" fill="#ffffff"/>
  <g font-family="Arial, Segoe UI, sans-serif">
    <line x1="72" y1="34.0" x2="832" y2="34.0" stroke="#dce7ea" stroke-dasharray="4 5"/><text x="60" y="38.0" text-anchor="end" font-size="12" fill="#5d6d73">1.5M</text><line x1="72" y1="128.0" x2="832" y2="128.0" stroke="#dce7ea" stroke-dasharray="4 5"/><text x="60" y="132.0" text-anchor="end" font-size="12" fill="#5d6d73">1.3M</text><line x1="72" y1="222.0" x2="832" y2="222.0" stroke="#dce7ea" stroke-dasharray="4 5"/><text x="60" y="226.0" text-anchor="end" font-size="12" fill="#5d6d73">1.0M</text><line x1="72" y1="316.0" x2="832" y2="316.0" stroke="#dce7ea" stroke-dasharray="4 5"/><text x="60" y="320.0" text-anchor="end" font-size="12" fill="#5d6d73">770K</text><line x1="72" y1="410.0" x2="832" y2="410.0" stroke="#dce7ea" stroke-dasharray="4 5"/><text x="60" y="414.0" text-anchor="end" font-size="12" fill="#5d6d73">524K</text>
    <polygon points="72,410 72.0,295.5 135.3,346.0 198.7,410.0 262.0,336.0 325.3,404.6 388.7,315.8 452.0,319.2 515.3,335.4 578.7,320.2 642.0,206.0 705.3,169.2 768.7,34.0 832.0,366.1 832,410" fill="#40b8d5" opacity=".16"/>
    <polyline points="72.0,295.5 135.3,346.0 198.7,410.0 262.0,336.0 325.3,404.6 388.7,315.8 452.0,319.2 515.3,335.4 578.7,320.2 642.0,206.0 705.3,169.2 768.7,34.0 832.0,366.1" fill="none" stroke="#168cc2" stroke-width="4" stroke-linejoin="round" stroke-linecap="round"/>
    <circle cx="72.0" cy="295.5" r="4" fill="#168cc2"/><circle cx="135.3" cy="346.0" r="4" fill="#168cc2"/><circle cx="198.7" cy="410.0" r="4" fill="#168cc2"/><circle cx="262.0" cy="336.0" r="4" fill="#168cc2"/><circle cx="325.3" cy="404.6" r="4" fill="#168cc2"/><circle cx="388.7" cy="315.8" r="4" fill="#168cc2"/><circle cx="452.0" cy="319.2" r="4" fill="#168cc2"/><circle cx="515.3" cy="335.4" r="4" fill="#168cc2"/><circle cx="578.7" cy="320.2" r="4" fill="#168cc2"/><circle cx="642.0" cy="206.0" r="4" fill="#168cc2"/><circle cx="705.3" cy="169.2" r="4" fill="#168cc2"/><circle cx="768.7" cy="34.0" r="4" fill="#168cc2"/><circle cx="832.0" cy="366.1" r="4" fill="#168cc2"/>
    <text x="72.0" y="445" text-anchor="middle" font-size="12" fill="#5d6d73">Dec</text><text x="198.7" y="445" text-anchor="middle" font-size="12" fill="#5d6d73">Feb</text><text x="325.3" y="445" text-anchor="middle" font-size="12" fill="#5d6d73">Apr</text><text x="452.0" y="445" text-anchor="middle" font-size="12" fill="#5d6d73">Jun</text><text x="578.7" y="445" text-anchor="middle" font-size="12" fill="#5d6d73">Aug</text><text x="705.3" y="445" text-anchor="middle" font-size="12" fill="#5d6d73">Oct</text><text x="832.0" y="445" text-anchor="middle" font-size="12" fill="#5d6d73">Dec</text>
  </g>
</svg>