<svg xmlns="http://www.w3.org/2000/svg" viewBox="0 0 860 480" role="img">
  <rect width="100%" height="100%" fill="#ffffff"/>
  <g font-family="Arial, Segoe UI, sans-serif">

    <text x="248" y="52" text-anchor="end" font-size="13" fill="#26343b">PAPER CRAFT , LITTLE BIRDIE</text>
    <rect x="260" y="34" width="514.0" height="24" rx="5" fill="#8f2bb3"/>
    <text x="782.0" y="51" font-size="13" fill="#34444b">81K</text>

    <text x="248" y="91" text-anchor="end" font-size="13" fill="#26343b">MEDIUM CERAMIC TOP STORAGE JAR</text>
    <rect x="260" y="73" width="495.2" height="24" rx="5" fill="#8f2bb3"/>
    <text x="763.2" y="90" font-size="13" fill="#34444b">78K</text>

    <text x="248" y="130" text-anchor="end" font-size="13" fill="#26343b">WORLD WAR 2 GLIDERS ASSTD DESIGNS</text>
    <rect x="260" y="112" width="349.3" height="24" rx="5" fill="#8f2bb3"/>
    <text x="617.3" y="129" font-size="13" fill="#34444b">55K</text>

    <text x="248" y="169" text-anchor="end" font-size="13" fill="#26343b">JUMBO BAG RED RETROSPOT</text>
    <rect x="260" y="151" width="307.6" height="24" rx="5" fill="#8f2bb3"/>
    <text x="575.6" y="168" font-size="13" fill="#34444b">48K</text>

    <text x="248" y="208" text-anchor="end" font-size="13" fill="#26343b">WHITE HANGING HEART T-LIGHT HOLDER</text>
    <rect x="260" y="190" width="238.6" height="24" rx="5" fill="#8f2bb3"/>
    <text x="506.6" y="207" font-size="13" fill="#34444b">38K</text>

    <text x="248" y="247" text-anchor="end" font-size="13" fill="#26343b">POPCORN HOLDER</text>
    <rect x="260" y="229" width="233.3" height="24" rx="5" fill="#8f2bb3"/>
    <text x="501.3" y="246" font-size="13" fill="#34444b">37K</text>

    <text x="248" y="286" text-anchor="end" font-size="13" fill="#26343b">ASSORTED COLOUR BIRD ORNAMENT</text>
    <rect x="260" y="268" width="231.4" height="24" rx="5" fill="#8f2bb3"/>
    <text x="499.4" y="285" font-size="13" fill="#34444b">36K</text>

    <text x="248" y="325" text-anchor="end" font-size="13" fill="#26343b">PACK OF 72 RETROSPOT CAKE CASES</text>
    <rect x="260" y="307" width="231.1" height="24" rx="5" fill="#8f2bb3"/>
    <text x="499.1" y="324" font-size="13" fill="#34444b">36K</text>

    <text x="248" y="364" text-anchor="end" font-size="13" fill="#26343b">RABBIT NIGHT LIGHT</text>
    <rect x="260" y="346" width="195.4" height="24" rx="5" fill="#8f2bb3"/>
    <text x="463.4" y="363" font-size="13" fill="#34444b">31K</text>

    <text x="248" y="403" text-anchor="end" font-size="13" fill="#26343b">MINI PAINT SET VINTAGE</text>
    <rect x="260" y="385" width="169.0" height="24" rx="5" fill="#8f2bb3"/>
    <text x="437.0" y="402" font-size="13" fill="#34444b">27K</text>

    <line x1="260" y1="428" x2="774" y2="428" stroke="#d9e4e8"/>
    <text x="260" y="456" font-size="12" fill="#5d6d73">Units sold</text>
  </g>
</svg>